<svg width="16" height="16" viewBox="0 0 16 16" fill="none" xmlns="http://www.w3.org/2000/svg">
<path d="M6.9206 0.125275C5.48017 0.386855 4.33969 1.49944 4.04323 2.9294C3.98743 3.20494 3.97696 3.35491 3.99091 3.76995C4.01184 4.39076 4.0816 4.68024 4.34666 5.21735C5.09304 6.74149 6.77063 7.51227 8.44125 7.09723C9.4213 6.84961 10.2723 6.15206 10.7292 5.21735C10.9908 4.68373 11.064 4.39076 11.0849 3.76995C11.0989 3.35142 11.0884 3.20494 11.0326 2.9294C10.6873 1.2553 9.20855 0.0590087 7.50654 0.0764474C7.32169 0.0764474 7.06011 0.100861 6.9206 0.125275Z" fill="#FDFDFD"/>
<path d="M6.16071 7.95866C2.79855 8.30046 0.217634 11.0104 0.0502232 14.3796L0.0292969 14.8225L0.151367 14.9446L0.276925 15.0701H7.5C15.4415 15.0701 14.8696 15.0876 14.9847 14.8609C15.0474 14.7423 15.0509 14.4702 14.9986 13.9959C14.7545 11.7533 13.457 9.81064 11.4795 8.72945C10.8901 8.40858 10.0356 8.12258 9.29966 8.004C8.8916 7.93774 6.68387 7.90635 6.16071 7.95866Z" fill="#FDFDFD"/>
</svg>
