<svg ddisplay="none" xmlns="http://www.w3.org/2000/svg">
    <symbol id="yellow_star" viewBox="0 0 20 20">
        <g><path d="M9.57324 0.49221C9.3623 0.58596 9.18262 0.74221 9.08496 0.914085C9.03418 1.00393 8.4873 2.26174 7.87012 3.71096C7.25293 5.16018 6.7373 6.3594 6.72168 6.37502C6.70996 6.39065 5.3623 6.52346 3.72559 6.6719C1.13574 6.91018 0.733398 6.95315 0.59668 7.02346C0.186523 7.2344 -0.000976562 7.53909 -0.000976562 7.99612C-0.000976562 8.32424 0.0810547 8.54299 0.28418 8.75002C0.354492 8.82033 1.37402 9.72268 2.5498 10.7539L4.69043 12.6328L4.66699 12.7696C4.65137 12.8438 4.3623 14.1367 4.01855 15.6367C3.64746 17.2696 3.39746 18.4531 3.39746 18.5742C3.39746 18.8242 3.58105 19.2149 3.76465 19.3555C4.07324 19.5899 4.42871 19.6641 4.78418 19.5664C4.87012 19.543 6.06933 18.8477 7.44824 18.0235C8.82715 17.1992 9.97558 16.5235 9.99902 16.5235C10.0225 16.5235 11.1709 17.1992 12.5498 18.0196C13.9287 18.8438 15.1162 19.5391 15.1904 19.5625C15.6475 19.7188 16.2178 19.4961 16.4561 19.0742C16.6748 18.6758 16.6826 18.7422 15.96 15.5586C15.6045 13.9883 15.3115 12.6875 15.3115 12.6641C15.3115 12.6446 16.2725 11.7852 17.4521 10.7539C18.6279 9.72268 19.6436 8.82033 19.7139 8.75002C19.7842 8.67971 19.8701 8.55862 19.9092 8.48049C19.9912 8.30862 20.0225 7.82815 19.9639 7.64455C19.8506 7.30862 19.5186 7.01955 19.167 6.94924C19.0771 6.92971 17.7217 6.8008 16.1514 6.65627C14.585 6.51565 13.2881 6.38674 13.2764 6.37502C13.2646 6.3594 12.7295 5.11721 12.0889 3.61721C10.8154 0.632835 10.8389 0.675804 10.4443 0.503929C10.2295 0.414085 9.77246 0.406273 9.57324 0.49221Z" fill="#F0B60C"/></g>
    </symbol>
    <symbol id="black_star" viewBox="0 0 20 20">
        <g><path d="M9.57324 0.49221C9.3623 0.58596 9.18262 0.74221 9.08496 0.914085C9.03418 1.00393 8.4873 2.26174 7.87012 3.71096C7.25293 5.16018 6.7373 6.3594 6.72168 6.37502C6.70996 6.39065 5.3623 6.52346 3.72559 6.6719C1.13574 6.91018 0.733398 6.95315 0.59668 7.02346C0.186523 7.2344 -0.000976562 7.53909 -0.000976562 7.99612C-0.000976562 8.32424 0.0810547 8.54299 0.28418 8.75002C0.354492 8.82033 1.37402 9.72268 2.5498 10.7539L4.69043 12.6328L4.66699 12.7696C4.65137 12.8438 4.3623 14.1367 4.01855 15.6367C3.64746 17.2696 3.39746 18.4531 3.39746 18.5742C3.39746 18.8242 3.58105 19.2149 3.76465 19.3555C4.07324 19.5899 4.42871 19.6641 4.78418 19.5664C4.87012 19.543 6.06933 18.8477 7.44824 18.0235C8.82715 17.1992 9.97558 16.5235 9.99902 16.5235C10.0225 16.5235 11.1709 17.1992 12.5498 18.0196C13.9287 18.8438 15.1162 19.5391 15.1904 19.5625C15.6475 19.7188 16.2178 19.4961 16.4561 19.0742C16.6748 18.6758 16.6826 18.7422 15.96 15.5586C15.6045 13.9883 15.3115 12.6875 15.3115 12.6641C15.3115 12.6446 16.2725 11.7852 17.4521 10.7539C18.6279 9.72268 19.6436 8.82033 19.7139 8.75002C19.7842 8.67971 19.8701 8.55862 19.9092 8.48049C19.9912 8.30862 20.0225 7.82815 19.9639 7.64455C19.8506 7.30862 19.5186 7.01955 19.167 6.94924C19.0771 6.92971 17.7217 6.8008 16.1514 6.65627C14.585 6.51565 13.2881 6.38674 13.2764 6.37502C13.2646 6.3594 12.7295 5.11721 12.0889 3.61721C10.8154 0.632835 10.8389 0.675804 10.4443 0.503929C10.2295 0.414085 9.77246 0.406273 9.57324 0.49221Z" fill="#2B2B2D"/></g>
    </symbol>
    <symbol id="sign_in" viewBox="0 0 15 15">
        <g><path d="M6.9206 0.125275C5.48017 0.386855 4.33969 1.49944 4.04323 2.9294C3.98743 3.20494 3.97696 3.35491 3.99091 3.76995C4.01184 4.39076 4.0816 4.68024 4.34666 5.21735C5.09304 6.74149 6.77063 7.51227 8.44125 7.09723C9.4213 6.84961 10.2723 6.15206 10.7292 5.21735C10.9908 4.68373 11.064 4.39076 11.0849 3.76995C11.0989 3.35142 11.0884 3.20494 11.0326 2.9294C10.6873 1.2553 9.20855 0.0590087 7.50654 0.0764474C7.32169 0.0764474 7.06011 0.100861 6.9206 0.125275Z" fill="#FDFDFD"/><path d="M6.16071 7.95866C2.79855 8.30046 0.217634 11.0104 0.0502232 14.3796L0.0292969 14.8225L0.151367 14.9446L0.276925 15.0701H7.5C15.4415 15.0701 14.8696 15.0876 14.9847 14.8609C15.0474 14.7423 15.0509 14.4702 14.9986 13.9959C14.7545 11.7533 13.457 9.81064 11.4795 8.72945C10.8901 8.40858 10.0356 8.12258 9.29966 8.004C8.8916 7.93774 6.68387 7.90635 6.16071 7.95866Z" fill="#FDFDFD"/></g>
    </symbol>
    <symbol id="logo_biege" viewBox="0 0 64 64">
        <g><path fill-rule="evenodd" clip-rule="evenodd" d="M32.0269 64C49.6851 64 64 49.6731 64 32C64 14.3269 49.6851 0 32.0269 0C27.825 0 23.8125 0.811221 20.137 2.28571C23.805 9.15008 19.4658 12.1215 15.355 12.1215C20.6077 22.1787 10.559 23.5501 7.81803 21.4857C11.2441 28.8 3.47882 30.1714 0.0531255 28.8C-0.0667573 29.9264 0.053728 30.8417 0.053728 32C0.053728 49.6731 14.3686 64 32.0269 64Z" fill="#D9C4B1"/></g>
    </symbol>
    <symbol id="logo_text" viewBox="0 0 67 71">
        <g><path d="M18.1049 3.57888C18.3747 3.63738 18.6409 3.46603 18.6994 3.19615C18.7579 2.92628 18.5866 2.66008 18.3167 2.60158L18.1049 3.57888ZM15.8441 4.4893L15.3441 4.48936L15.8441 4.4893ZM18.2107 6.12155L18.2107 6.62155L18.2107 6.12155ZM20.7925 6.82109L20.3811 7.10521L20.7925 6.82109ZM20.5773 9.15287L20.211 8.81263C20.1982 8.82639 20.1862 8.84086 20.175 8.85597L20.5773 9.15287ZM18.4214 9.16575C18.171 9.04943 17.8736 9.15816 17.7573 9.40861C17.641 9.65905 17.7497 9.95638 18.0002 10.0727L18.4214 9.16575ZM11.2787 8.77625C11.457 8.56541 11.4307 8.24992 11.2198 8.07159C11.009 7.89327 10.6935 7.91962 10.5152 8.13046L11.2787 8.77625ZM8.53027 11.2515L8.14851 10.9286C7.97692 11.1315 7.99398 11.4331 8.18735 11.6154L8.53027 11.2515ZM13.4787 15.9151L13.1358 16.2789C13.2382 16.3754 13.3765 16.4243 13.5168 16.4136C13.6571 16.4029 13.7864 16.3336 13.8729 16.2226L13.4787 15.9151ZM16.2383 13.1913C16.4082 12.9736 16.3694 12.6594 16.1517 12.4895C15.934 12.3197 15.6198 12.3584 15.4499 12.5761L16.2383 13.1913ZM13.6645 10.8507C13.8295 10.6293 13.7838 10.3161 13.5624 10.151C13.3409 9.98603 13.0277 10.0318 12.8627 10.2532L13.6645 10.8507ZM6.17826 16.3763C6.30423 16.1306 6.20713 15.8292 5.9614 15.7033C5.71566 15.5773 5.41433 15.6744 5.28837 15.9201L6.17826 16.3763ZM3.13686 20.1173C3.01089 20.3631 3.10799 20.6644 3.35373 20.7904C3.59946 20.9163 3.90079 20.8193 4.02676 20.5735L3.13686 20.1173ZM10.4307 22.1769C10.6695 22.3156 10.9755 22.2344 11.1142 21.9956C11.2528 21.7567 11.1716 21.4508 10.9328 21.3121L10.4307 22.1769ZM1.54737 24.9892C1.27891 24.9246 1.00886 25.0898 0.944201 25.3583C0.879543 25.6267 1.04476 25.8968 1.31323 25.9614L1.54737 24.9892ZM9.05865 27.8269C9.32712 27.8915 9.59717 27.7263 9.66183 27.4578C9.72648 27.1894 9.56126 26.9193 9.2928 26.8547L9.05865 27.8269ZM1 35.9684H0.5C0.5 36.2445 0.723858 36.4684 1 36.4684V35.9684ZM7.88482 35.9684V36.4684C8.16096 36.4684 8.38482 36.2445 8.38482 35.9684H7.88482ZM7.88482 32.937H8.38482C8.38482 32.878 8.37435 32.8194 8.35389 32.7639L7.88482 32.937ZM4.01925 47.6183C3.8855 47.3767 3.58123 47.2893 3.33964 47.423C3.09804 47.5567 3.01062 47.861 3.14437 48.1026L4.01925 47.6183ZM5.51816 51.3581L5.08072 51.6003C5.14522 51.7168 5.25352 51.8027 5.38162 51.8391C5.50972 51.8755 5.64703 51.8592 5.76312 51.794L5.51816 51.3581ZM11.3272 48.0936L11.5722 48.5295C11.8037 48.3994 11.8931 48.1111 11.7759 47.8728L11.3272 48.0936ZM10.0546 44.3752C9.93272 44.1274 9.63303 44.0254 9.38526 44.1473C9.13749 44.2693 9.03548 44.5689 9.1574 44.8167L10.0546 44.3752ZM8.21683 49.8416L8.46179 50.2774L8.21683 49.8416ZM6.82442 46.0015C6.69922 45.7554 6.3982 45.6573 6.15207 45.7825C5.90594 45.9077 5.80791 46.2088 5.93311 46.4549L6.82442 46.0015ZM14.693 52.4111C14.8882 52.2158 14.8881 51.8992 14.6928 51.704C14.4975 51.5088 14.1809 51.5089 13.9857 51.7042L14.693 52.4111ZM8.3918 57.3004C8.19657 57.4957 8.19664 57.8123 8.39194 58.0075C8.58725 58.2028 8.90383 58.2027 9.09905 58.0074L8.3918 57.3004ZM17.7189 55.6612C17.9062 55.4582 17.8935 55.1419 17.6905 54.9547C17.4876 54.7674 17.1712 54.7801 16.984 54.9831L17.7189 55.6612ZM11.6052 60.8125C11.418 61.0155 11.4307 61.3318 11.6336 61.5191C11.8366 61.7063 12.1529 61.6936 12.3402 61.4906L11.6052 60.8125ZM22.6631 61.8001C22.635 62.0748 22.8348 62.3204 23.1095 62.3485C23.3842 62.3767 23.6297 62.1768 23.6579 61.9021L22.6631 61.8001ZM20.1484 59.2862L20.359 59.7396L20.1484 59.2862ZM21.009 64.1829L21.4113 63.886L21.009 64.1829ZM18.4748 64.2691C18.3936 64.0051 18.1139 63.857 17.8499 63.9382C17.586 64.0193 17.4378 64.2991 17.519 64.5631L18.4748 64.2691ZM31.912 70.2455C31.912 70.5217 32.1359 70.7455 32.412 70.7455C32.6881 70.7455 32.912 70.5217 32.912 70.2455H31.912ZM32.412 62.3175L32.8205 62.0292C32.6949 61.8512 32.4685 61.775 32.2608 61.8409C32.0531 61.9068 31.912 62.0996 31.912 62.3175H32.412ZM38.0059 70.2455L37.5974 70.5338C37.723 70.7118 37.9494 70.788 38.1571 70.7221C38.3648 70.6562 38.5059 70.4634 38.5059 70.2455H38.0059ZM38.5059 62.3175C38.5059 62.0413 38.2821 61.8175 38.0059 61.8175C37.7298 61.8175 37.5059 62.0413 37.5059 62.3175H38.5059ZM41.7087 61.3809C41.449 61.4747 41.3145 61.7613 41.4084 62.021C41.5022 62.2807 41.7888 62.4152 42.0485 62.3214L41.7087 61.3809ZM45.1059 60.6852L45.579 60.5235C45.5356 60.3966 45.4431 60.2925 45.3222 60.2344C45.2013 60.1764 45.0621 60.1694 44.936 60.215L45.1059 60.6852ZM47.2574 66.981L47.4831 67.4272C47.7056 67.3147 47.8112 67.0553 47.7305 66.8194L47.2574 66.981ZM43.8045 68.1671C43.558 68.2917 43.4593 68.5925 43.584 68.8389C43.7086 69.0854 44.0094 69.1841 44.2558 69.0595L43.8045 68.1671ZM42.9448 64.9021C42.6981 65.0263 42.5988 65.3269 42.7229 65.5735C42.847 65.8202 43.1476 65.9196 43.3943 65.7954L42.9448 64.9021ZM49.3834 57.3604C49.2213 57.1369 48.9087 57.087 48.6851 57.2491C48.4615 57.4112 48.4117 57.7238 48.5738 57.9474L49.3834 57.3604ZM53.3071 64.4764C53.4692 64.6999 53.7818 64.7498 54.0054 64.5877C54.229 64.4256 54.2788 64.113 54.1167 63.8894L53.3071 64.4764ZM53.0439 54.5664C52.8841 54.3412 52.5719 54.2882 52.3468 54.448C52.1216 54.6079 52.0686 54.92 52.2284 55.1452L53.0439 54.5664ZM56.7602 61.2261C56.9301 61.4438 57.2444 61.4825 57.462 61.3125C57.6797 61.1426 57.7184 60.8284 57.5484 60.6107L56.7602 61.2261ZM61.4945 56.3306C61.6652 56.5478 61.9795 56.5854 62.1966 56.4148C62.4137 56.2441 62.4514 55.9298 62.2807 55.7127L61.4945 56.3306ZM56.9392 49.7259L57.0451 49.2372C56.839 49.1925 56.6271 49.2819 56.5153 49.4607C56.4035 49.6394 56.4158 49.8691 56.5461 50.0348L56.9392 49.7259ZM63.3937 51.1249L63.2878 51.6136C63.5009 51.6598 63.7194 51.5625 63.8277 51.3732C63.936 51.1838 63.9091 50.9462 63.7612 50.7859L63.3937 51.1249ZM58.6604 45.995L58.7348 45.5006C58.5249 45.469 58.318 45.5733 58.2186 45.7608C58.1192 45.9483 58.149 46.1781 58.2929 46.3341L58.6604 45.995ZM66.3314 47.6553C66.6044 47.6964 66.8591 47.5084 66.9002 47.2353C66.9413 46.9623 66.7533 46.7076 66.4802 46.6665L66.3314 47.6553ZM65.0454 38.0516C65.0369 38.3276 65.2538 38.5582 65.5298 38.5667C65.8058 38.5752 66.0365 38.3583 66.045 38.0823L65.0454 38.0516ZM28.4699 0.962846C28.1965 1.00114 28.0058 1.25388 28.0441 1.52736C28.0824 1.80083 28.3352 1.99148 28.6086 1.95318L28.4699 0.962846ZM18.3167 2.60158C17.8965 2.51049 17.2042 2.47503 16.5887 2.69719C16.2732 2.81108 15.956 3.00096 15.7179 3.30791C15.4759 3.61998 15.3441 4.01656 15.3441 4.48936L16.3441 4.48924C16.3441 4.21007 16.4185 4.03634 16.5081 3.9208C16.6017 3.80014 16.7417 3.70511 16.9282 3.63779C17.3168 3.49754 17.8079 3.51452 18.1049 3.57888L18.3167 2.60158ZM15.3441 4.48936C15.3442 4.99937 15.4921 5.4177 15.751 5.74384C16.0044 6.06297 16.3372 6.2604 16.657 6.38393C17.2826 6.62562 17.962 6.62155 18.2107 6.62155L18.2107 5.62155C17.9519 5.62155 17.448 5.61748 17.0173 5.45111C16.809 5.37062 16.6453 5.26201 16.5342 5.12207C16.4287 4.98913 16.3442 4.79537 16.3441 4.48924L15.3441 4.48936ZM18.2107 6.62155C18.435 6.62156 18.6946 6.60599 18.9028 6.59946C19.1273 6.59242 19.3313 6.59348 19.5201 6.61755C19.8799 6.66344 20.1617 6.78755 20.3811 7.10521L21.2039 6.53696C20.7792 5.92193 20.2011 5.69629 19.6465 5.62558C19.3781 5.59136 19.1113 5.59243 18.8715 5.59995C18.6155 5.60798 18.4174 5.62156 18.2107 5.62155L18.2107 6.62155ZM20.3811 7.10521C20.5698 7.37846 20.5903 7.7388 20.5042 8.11449C20.4625 8.29677 20.3992 8.46442 20.3359 8.59675C20.3044 8.6626 20.2743 8.71655 20.2493 8.75666C20.2221 8.80025 20.2081 8.81574 20.211 8.81263L20.9437 9.4931C21.0479 9.38095 21.1517 9.20849 21.2379 9.02849C21.3291 8.83783 21.4189 8.60039 21.479 8.33772C21.5968 7.82352 21.6166 7.13455 21.2039 6.53696L20.3811 7.10521ZM20.175 8.85597C19.9876 9.10997 19.3528 9.59833 18.4214 9.16575L18.0002 10.0727C19.4786 10.7594 20.5935 9.97302 20.9797 9.44976L20.175 8.85597ZM10.5152 8.13046L8.14851 10.9286L8.91203 11.5744L11.2787 8.77625L10.5152 8.13046ZM13.8729 16.2226L16.2383 13.1913L15.4499 12.5761L13.0845 15.6075L13.8729 16.2226ZM8.18735 11.6154L10.6616 13.9471L11.3474 13.2194L8.8732 10.8876L8.18735 11.6154ZM10.6616 13.9471L13.1358 16.2789L13.8217 15.5512L11.3474 13.2194L10.6616 13.9471ZM11.4054 13.882L13.6645 10.8507L12.8627 10.2532L10.6036 13.2845L11.4054 13.882ZM5.28837 15.9201L4.21261 18.0187L5.10251 18.4749L6.17826 16.3763L5.28837 15.9201ZM4.21261 18.0187L3.13686 20.1173L4.02676 20.5735L5.10251 18.4749L4.21261 18.0187ZM4.40651 18.6792L10.4307 22.1769L10.9328 21.3121L4.90861 17.8144L4.40651 18.6792ZM1.31323 25.9614L9.05865 27.8269L9.2928 26.8547L1.54737 24.9892L1.31323 25.9614ZM8.38482 35.9684V32.937H7.38482V35.9684H8.38482ZM8.35389 32.7639C8.05668 31.9586 7.15502 31.3948 6.26435 31.359C5.79909 31.3403 5.31126 31.4624 4.88844 31.7856C4.4659 32.1086 4.14485 32.6041 3.96053 33.27L4.92429 33.5368C5.06269 33.0368 5.27952 32.7454 5.49571 32.5801C5.71162 32.4151 5.96337 32.3477 6.22424 32.3582C6.78584 32.3807 7.28266 32.7496 7.41575 33.1102L8.35389 32.7639ZM1 36.4684H4.44241V35.4684H1V36.4684ZM4.44241 36.4684H7.88482V35.4684H4.44241V36.4684ZM3.94241 33.4034V35.9684H4.94241V33.4034H3.94241ZM1.5 35.9684V33.8698H0.5V35.9684H1.5ZM1.5 33.8698C1.5 33.6949 1.57297 33.5557 1.72543 33.4361C1.88983 33.3072 2.1445 33.2076 2.45615 33.1714C3.10517 33.096 3.75416 33.3129 4.04013 33.7003L4.84469 33.1065C4.27006 32.328 3.19784 32.0785 2.34081 32.1781C1.89943 32.2293 1.45486 32.3774 1.10828 32.6493C0.749759 32.9305 0.5 33.3451 0.5 33.8698H1.5ZM3.14437 48.1026L5.08072 51.6003L5.9556 51.1159L4.01925 47.6183L3.14437 48.1026ZM11.7759 47.8728L10.0546 44.3752L9.1574 44.8167L10.8786 48.3144L11.7759 47.8728ZM5.76312 51.794L8.46179 50.2774L7.97188 49.4057L5.27321 50.9222L5.76312 51.794ZM8.46179 50.2774L11.5722 48.5295L11.0823 47.6577L7.97188 49.4057L8.46179 50.2774ZM8.66249 49.6149L6.82442 46.0015L5.93311 46.4549L7.77118 50.0682L8.66249 49.6149ZM13.9857 51.7042L10.9736 54.7175L11.6809 55.4245L14.693 52.4111L13.9857 51.7042ZM10.9736 54.7175L8.3918 57.3004L9.09905 58.0074L11.6809 55.4245L10.9736 54.7175ZM10.9707 55.4216L14.198 58.704L14.911 58.0029L11.6838 54.7205L10.9707 55.4216ZM14.922 58.6925L17.7189 55.6612L16.984 54.9831L14.187 58.0144L14.922 58.6925ZM14.187 58.0144L11.6052 60.8125L12.3402 61.4906L14.922 58.6925L14.187 58.0144ZM23.6579 61.9021C23.7793 60.7183 23.3928 59.7104 22.6642 59.1114C21.9289 58.5069 20.9145 58.379 19.9378 58.8327L20.359 59.7396C21.013 59.4359 21.6123 59.5412 22.0291 59.8839C22.4527 60.2321 22.7569 60.8854 22.6631 61.8001L23.6579 61.9021ZM19.9378 58.8327C19.4654 59.0521 19.1207 59.3859 18.9415 59.8321C18.7671 60.2662 18.7729 60.7482 18.8804 61.2311C19.0925 62.1833 19.7378 63.3026 20.6067 64.4798L21.4113 63.886C20.5591 62.7314 20.021 61.7521 19.8565 61.0137C19.7758 60.6514 19.795 60.3901 19.8694 60.2048C19.939 60.0317 20.0784 59.87 20.359 59.7396L19.9378 58.8327ZM20.6067 64.4798C20.8192 64.7676 20.8937 65.1851 20.7927 65.5024C20.7452 65.6516 20.6619 65.7714 20.5415 65.8565C20.4208 65.9417 20.2307 66.0147 19.9333 66.0147V67.0147C20.3993 67.0147 20.8004 66.8979 21.1185 66.6732C21.4368 66.4483 21.6398 66.1378 21.7455 65.8059C21.9509 65.1609 21.7999 64.4125 21.4113 63.886L20.6067 64.4798ZM19.9333 66.0147C19.6307 66.0147 19.3304 65.818 19.0446 65.4308C18.766 65.0533 18.572 64.5852 18.4748 64.2691L17.519 64.5631C17.6369 64.9465 17.8733 65.5277 18.2401 66.0246C18.5997 66.5119 19.16 67.0147 19.9333 67.0147V66.0147ZM32.912 70.2455V62.3175H31.912V70.2455H32.912ZM32.0035 62.6057L37.5974 70.5338L38.4145 69.9573L32.8205 62.0292L32.0035 62.6057ZM38.5059 70.2455V62.3175H37.5059V70.2455H38.5059ZM42.0485 62.3214L45.2758 61.1555L44.936 60.215L41.7087 61.3809L42.0485 62.3214ZM47.0317 66.5349L43.8045 68.1671L44.2558 69.0595L47.4831 67.4272L47.0317 66.5349ZM44.6327 60.8469L45.7085 63.9948L46.6548 63.6714L45.579 60.5235L44.6327 60.8469ZM45.7085 63.9948L46.7843 67.1427L47.7305 66.8194L46.6548 63.6714L45.7085 63.9948ZM45.9569 63.3865L42.9448 64.9021L43.3943 65.7954L46.4064 64.2798L45.9569 63.3865ZM48.5738 57.9474L50.9404 61.2119L51.7501 60.6249L49.3834 57.3604L48.5738 57.9474ZM50.9404 61.2119L53.3071 64.4764L54.1167 63.8894L51.7501 60.6249L50.9404 61.2119ZM51.6757 61.2937L55.1181 58.2623L54.4572 57.5118L51.0148 60.5432L51.6757 61.2937ZM55.1954 57.5977L53.0439 54.5664L52.2284 55.1452L54.3799 58.1765L55.1954 57.5977ZM54.3936 58.1948L56.7602 61.2261L57.5484 60.6107L55.1818 57.5794L54.3936 58.1948ZM62.2807 55.7127L57.3323 49.4169L56.5461 50.0348L61.4945 56.3306L62.2807 55.7127ZM56.8332 50.2145L63.2878 51.6136L63.4996 50.6363L57.0451 49.2372L56.8332 50.2145ZM63.7612 50.7859L59.0278 45.656L58.2929 46.3341L63.0262 51.464L63.7612 50.7859ZM58.5859 46.4894L66.3314 47.6553L66.4802 46.6665L58.7348 45.5006L58.5859 46.4894ZM66.045 38.0823C66.2622 31.0199 64.6595 20.6785 59.1043 12.6232C56.3212 8.58777 52.5428 5.12222 47.5058 2.94183C42.4689 0.761557 36.2045 -0.120302 28.4699 0.962846L28.6086 1.95318C36.1928 0.891102 42.2672 1.76391 47.1085 3.85954C51.9495 5.95506 55.5885 9.28665 58.281 13.1909C63.6769 21.0151 65.2585 31.1233 65.0454 38.0516L66.045 38.0823Z" fill="#2B2B2D"/></g>
    </symbol>
    <symbol id="arrow_right" viewBox="0 0 22 15">
        <g><path d="M21.463 8.20711C21.8535 7.81658 21.8535 7.18342 21.463 6.79289L15.099 0.428932C14.7085 0.0384078 14.0753 0.0384078 13.6848 0.428932C13.2943 0.819457 13.2943 1.45262 13.6848 1.84315L19.3416 7.5L13.6848 13.1569C13.2943 13.5474 13.2943 14.1805 13.6848 14.5711C14.0753 14.9616 14.7085 14.9616 15.099 14.5711L21.463 8.20711ZM0.755859 8.5H20.7559V6.5H0.755859V8.5Z" fill="#FDFDFD"/></g>
    </symbol>
    <symbol id="arrow_left" viewBox="0 0 22 15">
        <g><path d="M0.291916 6.79289C-0.098608 7.18342 -0.098608 7.81658 0.291916 8.20711L6.65588 14.5711C7.0464 14.9616 7.67957 14.9616 8.07009 14.5711C8.46062 14.1805 8.46062 13.5474 8.07009 13.1569L2.41324 7.5L8.07009 1.84315C8.46062 1.45262 8.46062 0.819457 8.07009 0.428932C7.67957 0.0384078 7.0464 0.0384078 6.65588 0.428932L0.291916 6.79289ZM20.999 6.5L0.999023 6.5V8.5L20.999 8.5V6.5Z"/></g>
    </symbol>
    <symbol id="plus" viewBox="0 0 29 28">
        <g><rect x="0.5" width="28" height="28" rx="14" fill="#F3EAE1"/>
        <path d="M14.5 22L14.5 6" stroke="#BDA187" stroke-width="2"/>
        <path d="M6.5 13.5H22.5" stroke="#BDA187" stroke-width="2"/></g>
    </symbol>
    <symbol id="search" viewBox="0 0 20 20">
        <g><path d="M19.7556 18.5776L14.0682 12.8901C15.1699 11.5293 15.8332 9.80015 15.8332 7.91685C15.8332 3.55189 12.2815 0.000244141 7.91656 0.000244141C3.55161 0.000244141 0 3.55185 0 7.91681C0 12.2818 3.55165 15.8334 7.9166 15.8334C9.7999 15.8334 11.5291 15.1701 12.8899 14.0684L18.5773 19.7559C18.7398 19.9184 18.9531 20 19.1665 20C19.3798 20 19.5932 19.9184 19.7557 19.7559C20.0815 19.4301 20.0815 18.9034 19.7556 18.5776ZM7.9166 14.1667C4.46996 14.1667 1.66666 11.3635 1.66666 7.91681C1.66666 4.47016 4.46996 1.66687 7.9166 1.66687C11.3632 1.66687 14.1665 4.47016 14.1665 7.91681C14.1665 11.3635 11.3632 14.1667 7.9166 14.1667Z" fill="#2B2B2D"/></g>
    </symbol>
    <symbol id="cross" viewBox="0 0 29 29">
        <g><rect width="28.6274" height="28.6274" rx="14.3137" fill="#F3EAE1"/>
        <path d="M19.9707 19.9707L8.657 8.657" stroke="#BDA187" stroke-width="2"/>
        <path d="M8.30371 19.6172L19.6174 8.30348" stroke="#BDA187" stroke-width="2"/></g>
    </symbol>
    <symbol id="cross_white" viewBox="0 0 29 29">
        <g><rect width="28.6274" height="28.6274" rx="14.3137" fill="#FDFDFD"/>
        <path d="M19.9707 19.9707L8.657 8.657" stroke="#BDA187" stroke-width="2"/>
        <path d="M8.30371 19.6172L19.6174 8.30348" stroke="#BDA187" stroke-width="2"/></g>
    </symbol>
    <symbol id="plus" viewBox="0 0 17 16">
        <g><path d="M8.5 16L8.5 4.07633e-07" stroke="#BDA187" stroke-width="2"/>
        <path d="M0.5 7.5H16.5" stroke="#BDA187" stroke-width="2"/></g>
    </symbol>
</svg>